ffmpeg version 6.1.1 Copyright (c) 2000-2023 the FFmpeg developers
  built with clang version 20.1.8
  configuration: --prefix=/c/miniconda3/conda-bld/ffmpeg_1762437060025/_h_env/Library --cc=clang.exe --ar=llvm-ar --nm=llvm-nm --ranlib=llvm-ranlib --strip= --disable-doc --enable-swresample --enable-swscale --enable-openssl --enable-libxml2 --enable-libtheora --enable-demuxer=dash --enable-postproc --enable-hardcoded-tables --enable-libfreetype --enable-libharfbuzz --enable-libfontconfig --enable-libdav1d --enable-zlib --enable-libaom --enable-pic --enable-shared --disable-static --disable-gpl --enable-version3 --disable-sdl2 --ld=lld-link --target-os=win64 --toolchain=msvc --host-cc=clang.exe --enable-cross-compile --disable-libmp3lame --host-extralibs= --disable-pthreads --enable-w32threads --extra-libs='ucrt.lib vcruntime.lib oldnames.lib' --disable-stripping
  libavutil      58. 29.100 / 58. 29.100
  libavcodec     60. 31.102 / 60. 31.102
  libavformat    60. 16.100 / 60. 16.100
  libavdevice    60.  3.100 / 60.  3.100
  libavfilter     9. 12.100 /  9. 12.100
  libswscale      7.  5.100 /  7.  5.100
  libswresample   4. 12.100 /  4. 12.100
Input #0, mov,mp4,m4a,3gp,3g2,mj2, from 'workspace\648bc255\source.mp4':
  Metadata:
    major_brand     : isom
    minor_version   : 512
    compatible_brands: isomiso2avc1mp41
    encoder         : Lavf60.16.100
  Duration: 01:21:18.06, start: 0.000000, bitrate: 899 kb/s
  Stream #0:0[0x1](und): Video: h264 (High) (avc1 / 0x31637661), yuv420p(tv, bt709, progressive), 1920x1080 [SAR 1:1 DAR 16:9], 782 kb/s, 29.97 fps, 29.97 tbr, 30k tbn (default)
    Metadata:
      handler_name    : ISO Media file produced by Google Inc.
      vendor_id       : [0][0][0][0]
  Stream #0:1[0x2](eng): Audio: opus (Opus / 0x7375704F), 48000 Hz, stereo, fltp, 108 kb/s (default)
    Metadata:
      handler_name    : SoundHandler
      vendor_id       : [0][0][0][0]
Stream mapping:
  Stream #0:0 -> #0:0 (h264 (native) -> h264 (h264_mf))
  Stream #0:1 -> #0:1 (opus (native) -> aac (native))
Press [q] to stop, [?] for help
[h264 @ 0000022956110A00] Late SEI is not implemented. Update your FFmpeg version to the newest one from Git. If the problem still occurs, it means that your file has a feature which has not been implemented.
[h264 @ 0000022956110A00] If you want to help, upload a sample of this file to https://streams.videolan.org/upload/ and contact the ffmpeg-devel mailing list. (ffmpeg-devel@ffmpeg.org)
[h264 @ 00000229571DB540] Late SEI is not implemented. Update your FFmpeg version to the newest one from Git. If the problem still occurs, it means that your file has a feature which has not been implemented.
[h264 @ 00000229571DB540] If you want to help, upload a sample of this file to https://streams.videolan.org/upload/ and contact the ffmpeg-devel mailing list. (ffmpeg-devel@ffmpeg.org)
[h264_mf @ 0000022955DF0C80] [Eval @ 000000643E6FDCF0] Undefined constant or missing '(' in 'vbr'
[h264_mf @ 0000022955DF0C80] Unable to parse option value "vbr"
[h264_mf @ 0000022955DF0C80] Error setting option rate_control to value vbr.
[vost#0:0/h264_mf @ 0000022955DF09C0] Error while opening encoder - maybe incorrect parameters such as bit_rate, rate, width or height.
Error while filtering: Invalid argument
[out#0/mp4 @ 00000229540E1000] Nothing was written into output file, because at least one of its streams received no packets.
frame=    0 fps=0.0 q=0.0 Lsize=       0kB time=00:00:00.29 bitrate=   0.0kbits/s dup=1 drop=0 speed=1.86x    
[aac @ 0000022955FD4000] Qavg: 4257.167
Conversion failed!
